PathFileType	4	(X/Y/Z)	C:\Users\WrightLab\Desktop\Jo\P2_Trial24.trc
DataRate	CameraRate	NumFrames	NumMarkers	Units	OrigDataRate	OrigDataStartFrame	OrigNumFrames
100.00	100.00	       27	19	mm	100.00	523	       597
Frame#	Time	Headset_Front			Headset_Back			Headset_Left			Headset_Right			Left_Shoulder			Right_Shoulder			Sternum			C7			Left Elbow			Right Elbow			Left Wrist			Right Wrist			Left ASIS			Right ASIS			S2			Left Knee			Right Knee			Left Ankle			Right Ankle			
		X1	Y1	Z1	X2	Y2	Z2	X3	Y3	Z3	X4	Y4	Z4	X5	Y5	Z5	X6	Y6	Z6	X7	Y7	Z7	X8	Y8	Z8	X9	Y9	Z9	X10	Y10	Z10	X11	Y11	Z11	X12	Y12	Z12	X13	Y13	Z13	X14	Y14	Z14	X15	Y15	Z15	X16	Y16	Z16	X17	Y17	Z17	X18	Y18	Z18	X19	Y19	Z19	

523	5.220	42.38499	1719.87988	2431.05200							-78.36216	1689.96484	2517.42920	-118.24091	1234.68359	2731.47803	-99.17025	1528.73328	2564.96069							18.75255	1146.31641	2204.47534							-27.48054	1008.71118	2801.13647													-165.88216	608.51135	2636.41138	-143.23361	180.68822	2094.19189	-103.85365	516.60742	2209.12305	
524	5.230	42.18319	1719.91724	2428.77612							-76.29630	1690.90649	2518.75732	-113.43261	1236.40588	2738.17822	-95.88103	1529.14233	2567.00439							12.81617	1145.98218	2205.19678							-20.24379	1011.40149	2805.25342													-162.00407	607.12903	2639.82007	-157.37701	181.96179	2098.46069	-115.18949	519.08331	2208.19824	
525	5.240	41.99260	1719.76501	2427.71313							-74.56128	1691.42700	2518.74170	-109.07092	1238.17200	2743.74268	-92.61023	1529.22083	2568.56494							6.29591	1145.62463	2205.53125							-13.73311	1014.02509	2809.46631													-157.45262	604.92615	2642.60352	-174.24310	181.77480	2105.75757	-126.42345	518.92938	2214.08667	
526	5.250	41.83484	1718.59119	2424.58301							-72.43443	1691.59668	2519.24951	-104.93894	1239.37793	2749.48901	-89.72379	1528.67773	2570.09375							-0.69038	1145.40601	2205.57300							-7.23192	1016.22211	2813.66968													-153.25612	603.07068	2645.82446	-189.21384	182.11766	2109.26904	-137.55385	516.99988	2221.43335	
527	5.260	41.31904	1717.65100	2422.44873							-71.07493	1691.73572	2519.80347	-101.55472	1240.85754	2755.92578	-86.66110	1527.69238	2571.36597							-8.59053	1144.40173	2205.02002							-0.95722	1017.82666	2817.63599													-148.61383	601.52472	2648.52612	-204.17778	180.72116	2116.57739	-149.19846	518.96289	2220.86963	
528	5.270	40.49006	1716.86707	2420.34009							-69.60301	1691.30847	2519.31250	-97.69370	1240.97400	2760.76904	-84.25534	1527.18115	2573.32544							-17.02968	1143.78552	2204.16895							5.07634	1018.57892	2820.70728													-143.12512	599.95135	2650.45850	-219.46605	179.61450	2120.97925	-160.57838	517.35864	2225.81616	
529	5.280	39.09421	1716.32092	2417.79785							-68.29145	1691.33057	2519.75610	-94.01129	1241.99731	2765.99707	-81.35913	1526.79260	2575.33960																10.82779	1017.35382	2822.14673													-136.70819	599.66705	2653.66577	-235.63588	176.49722	2134.01025	-172.77611	516.71991	2232.41577	
530	5.290	38.11527	1715.62805	2415.30029							-67.11315	1691.40894	2519.99365	-90.18948	1241.95923	2770.44116	-78.71647	1525.24829	2576.47998																16.19707	1019.41608	2826.46997													-131.34406	599.98163	2655.58154	-251.96910	176.95580	2137.62939	-185.12280	516.60150	2232.21167	
531	5.300	36.83541	1714.82031	2411.80005							-65.99979	1691.45117	2519.29370	-86.95235	1242.22070	2774.33472	-76.18983	1524.31128	2577.26099																21.56668	1018.78369	2828.91357													-127.03502	597.62946	2653.61133	-267.68393	173.80540	2148.75317	-197.34692	515.19397	2237.70752	
532	5.310	34.96726	1715.00769	2409.93237							-65.44254	1691.40295	2519.06519	-83.78510	1242.91968	2778.30688	-73.31391	1523.18091	2578.87427																26.06162	1018.45288	2831.00806													-121.83453	597.05334	2652.91602	-283.00934	171.55042	2156.31836	-209.16302	515.79010	2237.75366	
533	5.320	33.18155	1714.51282	2407.22632							-64.73821	1691.32532	2518.34619	-79.68845	1242.59241	2781.09351	-71.07353	1522.29224	2578.34399																30.49754	1017.22833	2832.53687													-117.56332	597.02423	2653.08936	-298.25974	170.29509	2164.60083	-221.50282	514.54254	2240.71387	
534	5.330	30.68699	1714.09253	2403.85400							-63.98467	1691.43616	2517.14209	-75.53698	1242.57922	2782.84985	-68.45373	1521.92944	2578.87036																34.39400	1015.72290	2833.31250													-113.61727	597.26526	2652.36060	-313.32489	168.92322	2174.10449	-234.30731	514.38489	2244.66724	
535	5.340	28.60302	1713.38440	2400.82422							-63.86598	1691.61621	2516.74146	-71.26604	1242.61462	2783.99805	-66.37604	1521.26477	2578.13354																38.27669	1013.82556	2833.62183													-110.01392	597.70880	2650.40649	-328.90454	166.89331	2185.96118	-246.89944	514.11078	2242.86963	
536	5.350	25.71466	1712.99963	2398.92358							-63.80053	1691.81995	2516.08252	-66.03858	1241.98242	2783.63623	-65.23481	1521.02332	2577.69922																41.18735	1011.82788	2833.75366													-106.59486	597.70386	2648.66699	-344.44482	165.84192	2197.69019	-259.73108	513.52478	2251.74585	
537	5.360	23.20580	1712.46924	2396.02222							-63.67001	1692.13696	2514.77368	-60.70644	1241.07117	2782.33594	-63.59725	1520.51184	2576.56250																43.97371	1009.59644	2833.50830													-103.15398	597.07581	2645.82788	-359.54865	165.92632	2207.30371	-273.25595	513.23627	2251.11304	
538	5.370	20.27859	1711.87976	2392.63306							-64.02075	1692.19824	2513.96216	-54.36680	1239.87402	2779.83765	-62.68785	1520.73560	2575.93506																46.65321	1006.88226	2832.15479													-100.54904	596.80658	2643.57715	-373.90076	165.88535	2217.35010	-286.25314	513.36047	2257.15430	
539	5.380	17.11284	1711.33789	2389.18530							-64.39799	1691.87854	2512.82690	-48.43895	1239.28845	2776.69312	-61.40747	1520.28796	2574.38940																49.49491	1003.53186	2829.78906													-97.65437	595.94897	2640.78271	-389.76770	167.00653	2231.54956	-300.68921	514.46246	2260.21094	
540	5.390										-64.90616	1691.63635	2511.60669	-42.25973	1237.53760	2772.51367	-61.18058	1520.90674	2573.39502																51.80431	1000.75995	2826.99365													-95.45284	595.53424	2638.18604	-403.94589	168.49634	2238.18921	-313.71307	514.77521	2264.90601	
541	5.400										-65.53415	1691.43091	2510.14014	-35.61049	1235.57642	2767.45947	-60.56982	1520.81384	2571.80591																53.74779	998.20367	2823.95776													-93.20195	594.44983	2635.43652	-418.50601	168.82072	2250.04321	-327.56644	515.09839	2269.90820	
542	5.410										-66.19559	1691.29749	2508.61792	-30.43475	1233.34900	2762.67969	-59.82759	1520.46143	2570.06396																55.40759	994.86285	2819.20117													-91.24467	594.03632	2632.94751	-433.82520	170.46713	2262.56421	-340.85739	516.82593	2274.27881	
543	5.420										-67.23025	1690.98767	2507.17261	-25.05813	1231.12085	2756.20850	-59.74841	1520.46497	2569.20093																57.01207	991.85461	2814.24072													-89.35435	593.48187	2630.32520	-447.72711	170.83830	2275.26782	-353.98227	519.37317	2276.32349	
544	5.430										-68.77792	1691.03955	2506.01001	-20.72153	1228.36548	2749.95728	-59.69464	1520.56360	2567.96069																58.64178	988.39343	2807.60986													-87.59158	592.98352	2627.98999	-462.04208	171.25851	2288.35571	-366.49026	519.63190	2283.19751	
545	5.440										-69.94421	1690.94153	2504.13696	-17.38836	1225.61731	2742.84180	-60.04112	1520.72107	2565.79980																60.16634	985.15826	2800.60156													-86.33148	593.56732	2625.94531	-475.52081	173.21127	2303.64282	-378.42737	520.57684	2292.08667	
546	5.450										-71.53410	1690.69055	2502.77930	-14.44940	1222.98413	2735.73413	-60.57378	1520.41943	2564.17627																61.41389	982.08777	2792.88892													-84.76297	593.54675	2623.73901	-489.97891	176.00342	2315.44971	-389.83426	520.22424	2297.78345	
547	5.460										-73.14533	1690.54541	2501.28003	-12.43423	1219.80469	2728.61060	-60.84097	1520.02734	2562.73584																62.62239	979.03778	2783.96680													-83.87369	594.42224	2622.07837	-502.41522	176.33885	2331.95313	-401.30579	521.66125	2306.72339	
548	5.470										-74.77802	1689.96509	2499.52075	-11.14196	1217.26074	2720.97412	-61.69833	1519.62219	2560.07935																63.66593	976.18195	2774.65552													-82.31093	594.87775	2619.76465	-514.47241	177.29997	2345.35059	-411.12350	521.81372	2317.53394	
549	5.480										-76.94686	1689.84924	2498.44067	-9.94460	1214.35242	2713.31592	-62.37186	1519.50000	2558.30005																64.07494	973.45844	2765.53174													-81.20468	595.23914	2617.99707	-526.73889	180.46243	2358.85767	-421.51767	523.23889	2324.20435	
